<?xml version="1.0" standalone="no"?>
<!DOCTYPE svg PUBLIC "-//W3C//DTD SVG 20010904//EN"
 "http://www.w3.org/TR/2001/REC-SVG-20010904/DTD/svg10.dtd">
<svg version="1.0" xmlns="http://www.w3.org/2000/svg"
 width="500.000000pt" height="500.000000pt" viewBox="0 0 500.000000 500.000000"
 preserveAspectRatio="xMidYMid meet">
<metadata>
Created by potrace 1.15, written by Peter Selinger 2001-2017
</metadata>
<g transform="translate(0.000000,500.000000) scale(0.100000,-0.100000)"
fill="#000000" stroke="none">
<path d="M2080 3725 l0 -45 -49 0 -50 0 -3 -52 -3 -53 -47 -3 -48 -3 0 -515 0
-514 520 0 520 0 0 50 0 50 44 0 45 0 3 48 3 47 48 3 47 3 0 515 0 514 -515 0
-515 0 0 -45z m1015 -470 l0 -500 -42 -3 -43 -3 0 465 0 466 -460 0 -460 0 0
40 0 40 503 -2 502 -3 0 -500z m-95 -50 l0 -455 -40 0 -40 0 0 410 0 410 -415
0 -415 0 0 45 0 45 455 0 455 0 0 -455z m-1022 -107 l2 -458 460 0 460 0 0
-45 0 -45 -500 0 -500 0 0 506 0 505 38 -3 37 -3 3 -457z m100 50 l2 -408 410
0 410 0 0 -45 0 -45 -452 2 -453 3 -3 440 c-1 242 0 446 3 453 3 9 18 12 42
10 l38 -3 3 -407z m822 7 l0 -405 -405 0 -405 0 0 405 0 405 405 0 405 0 0
-405z"/>
<path d="M2217 3093 c-4 -3 -7 -55 -7 -115 l0 -108 115 0 115 0 0 115 0 115
-108 0 c-60 0 -112 -3 -115 -7z"/>
<path d="M1488 2165 c-34 -19 -48 -44 -48 -87 0 -63 57 -106 123 -94 76 14
108 109 55 163 -31 31 -92 39 -130 18z"/>
<path d="M1732 2103 c5 -69 8 -79 33 -101 24 -20 36 -23 69 -19 60 8 76 34 76
123 0 72 -1 74 -25 74 -24 0 -25 -2 -25 -68 0 -66 -10 -92 -36 -92 -30 0 -44
31 -44 96 0 62 -1 64 -26 64 l-27 0 5 -77z"/>
<path d="M2010 2080 l0 -100 25 0 c20 0 25 5 25 25 0 18 5 25 20 25 11 0 27
-11 36 -25 10 -15 26 -25 41 -25 24 0 24 0 7 29 -16 27 -16 30 0 52 23 33 20
66 -9 94 -20 21 -34 25 -85 25 l-60 0 0 -100z"/>
<path d="M2690 2080 c0 -93 1 -100 20 -100 15 0 20 7 20 25 0 20 5 25 23 25
16 0 28 -9 35 -25 8 -17 20 -25 37 -25 29 0 30 3 9 36 -15 23 -15 26 0 43 16
18 21 68 8 87 -14 22 -51 34 -101 34 l-51 0 0 -100z"/>
<path d="M3435 2171 c-64 -27 -81 -110 -32 -158 22 -23 36 -28 76 -28 59 0 81
17 81 61 0 29 -3 34 -24 34 -19 0 -25 -6 -28 -27 -4 -36 -39 -42 -67 -14 -27
27 -27 55 0 82 15 15 28 19 47 15 49 -12 56 -11 60 6 6 30 -66 48 -113 29z"/>
<path d="M2331 2148 c-5 -13 -23 -54 -40 -91 -17 -38 -31 -71 -31 -73 0 -12
49 -2 54 11 4 10 20 15 50 15 30 0 46 -5 50 -15 4 -12 56 -23 56 -12 0 2 -17
44 -39 93 -33 77 -42 89 -65 92 -20 3 -28 -2 -35 -20z"/>
<path d="M3100 2075 c0 -94 0 -95 25 -95 22 0 24 4 27 56 l3 56 40 -56 c28
-39 47 -56 63 -56 21 0 22 3 22 95 0 88 -2 95 -20 95 -16 0 -19 -8 -22 -57
l-3 -58 -45 57 c-31 40 -52 58 -67 58 -22 0 -23 -3 -23 -95z"/>
<path d="M1905 1841 c-61 -25 -80 -108 -36 -155 47 -50 137 -42 166 15 46 88
-38 177 -130 140z"/>
<path d="M2140 1776 c0 -89 16 -115 76 -123 33 -4 45 -1 69 20 27 23 30 32 33
101 l4 76 -26 0 c-25 0 -26 -2 -26 -61 0 -68 -12 -99 -38 -99 -32 0 -42 22
-42 92 0 66 -1 68 -25 68 -24 0 -25 -2 -25 -74z"/>
<path d="M2420 1751 l0 -101 25 0 c20 0 25 5 25 25 0 18 5 25 20 25 12 0 25
-10 32 -25 8 -18 19 -25 40 -25 l29 0 -21 30 c-19 27 -20 31 -6 46 21 20 21
88 0 105 -9 7 -45 15 -80 17 l-64 4 0 -101z"/>
<path d="M2680 1745 c0 -94 0 -95 25 -95 22 0 24 4 27 56 l3 56 40 -56 c28
-39 47 -56 63 -56 21 0 22 3 22 95 0 88 -2 95 -20 95 -16 0 -19 -8 -22 -57
l-3 -58 -45 57 c-31 40 -52 58 -67 58 -22 0 -23 -3 -23 -95z"/>
<path d="M2996 1766 c-51 -112 -52 -116 -22 -116 16 0 26 6 26 15 0 22 89 21
104 -1 7 -9 21 -14 33 -12 19 3 19 7 -20 96 -34 79 -43 92 -63 92 -21 0 -30
-12 -58 -74z"/>
</g>
</svg>
